<?xml version="1.0" encoding="UTF-8" standalone="no"?>
<!-- Created with Inkscape (http://www.inkscape.org/) -->

<svg
   version="1.1"
   id="svg1"
   width="1007.634"
   height="904.07422"
   viewBox="0 0 1007.634 904.07419"
   sodipodi:docname="lgoo.jpg"
   inkscape:dataloss="true"
   xmlns:inkscape="http://www.inkscape.org/namespaces/inkscape"
   xmlns:sodipodi="http://sodipodi.sourceforge.net/DTD/sodipodi-0.dtd"
   xmlns="http://www.w3.org/2000/svg"
   xmlns:svg="http://www.w3.org/2000/svg">
  <defs
     id="defs1" />
  <sodipodi:namedview
     id="namedview1"
     pagecolor="#ffffff"
     bordercolor="#000000"
     borderopacity="0.25"
     inkscape:showpageshadow="2"
     inkscape:pageopacity="0.0"
     inkscape:pagecheckerboard="0"
     inkscape:deskcolor="#d1d1d1"
     inkscape:zoom="0.94209178"
     inkscape:cx="652.80264"
     inkscape:cy="668.19392"
     inkscape:window-width="2562"
     inkscape:window-height="1442"
     inkscape:window-x="-1"
     inkscape:window-y="0"
     inkscape:window-maximized="1"
     inkscape:current-layer="g1">
    <inkscape:page
       x="0"
       y="8.75612e-16"
       width="1007.634"
       height="904.07422"
       id="page2"
       margin="0"
       bleed="0" />
  </sodipodi:namedview>
  <g
     inkscape:groupmode="layer"
     inkscape:label="Image"
     id="g1"
     transform="translate(-149.60766,-199.92586)">
    <path
       style="fill:#000000"
       d="m 656.44729,1095.0001 c 2.97351,-13.4189 5.79704,-27.2788 8.89576,-43.6667 1.52529,-8.0667 3.59319,-18.2667 4.59533,-22.6667 1.00215,-4.4 3.39935,-15.2 5.32712,-24 22.95362,-104.78023 73.94494,-275.96441 98.21386,-329.71609 3.09592,-6.85696 2.62202,-7.04839 17.45146,7.04943 6.17113,5.86667 17.48626,16.04461 25.14473,22.61764 7.65848,6.57303 16.62813,14.37303 19.93257,17.33333 17.13778,15.35299 47.03568,39.79122 55.99194,45.7672 9.17503,6.12197 6.9809,6.85021 -9.19623,3.05227 -28.02282,-6.57897 -60.59456,-3.10195 -89.27063,9.5296 -3.1901,1.40521 -8.2901,2.66257 -11.33334,2.79412 -5.53314,0.23918 -5.53314,0.23918 -5.36877,-9.76082 0.20299,-12.34903 4.30502,-25.43447 15.28354,-48.7543 9.11024,-19.35137 -7.68231,-4.87864 -23.41081,20.1767 -4.78708,7.62576 -8.70377,14.16219 -8.70377,14.5254 0,0.36321 -2.02,5.02354 -4.48888,10.35629 -17.28586,37.33723 -39.5145,112.28146 -32.65827,110.10789 0.9976,-0.31626 4.81381,-4.70023 8.48048,-9.74215 22.54226,-30.9972 60.07601,-57.08455 93.06815,-64.68585 24.28339,-5.59483 60.15386,-2.77838 93.59853,7.3491 16.09757,4.87455 21.74474,6.5104 36.66667,10.62148 6.96666,1.91935 17.16666,4.90712 22.66666,6.63948 43.93321,13.83781 87.60531,19.02747 119.33331,14.18068 25.9748,-3.96791 49.7171,-11.59097 57.721,-18.53272 3.8278,-3.3198 3.8008,-5.80585 -0.054,-4.99559 -29.5101,6.20249 -50.097,6.01498 -79.6667,-0.7256 -34.0146,-7.75385 -74.91789,-27.51205 -121.33331,-58.60972 -21.64126,-14.49934 -55.76277,-39.16939 -63.50029,-45.91109 -0.84166,-0.73334 -5.89944,-4.63334 -11.23951,-8.66667 -8.24769,-6.22945 -26.54307,-21.36748 -31.37293,-25.95872 -3.87373,-3.68234 -48.84519,-41.05976 -53.35158,-44.34244 -3.61937,-2.63652 -3.61937,-2.63652 2.79119,-17.83435 3.5258,-8.35881 6.91389,-16.09783 7.52908,-17.19783 0.61519,-1.1 3.45803,-7.4 6.31743,-14 2.8594,-6.6 8.26514,-18.42753 12.01276,-26.2834 3.74761,-7.85587 6.81384,-14.57946 6.81384,-14.94132 0,-0.36187 1.67946,-3.53434 3.73212,-7.04994 2.05266,-3.51561 4.5686,-8.49201 5.59097,-11.05868 1.02237,-2.56666 2.21044,-4.96666 2.64016,-5.33333 0.42972,-0.36667 3.99539,-6.93094 7.9237,-14.58728 6.99834,-13.63985 27.69964,-50.22068 35.88563,-63.41273 2.27525,-3.66666 5.13179,-8.46666 6.34785,-10.66666 3.78727,-6.8516 28.54868,-44.71209 30.71569,-46.96464 0.86315,-0.89722 2.95306,-3.89722 4.64426,-6.66667 3.1856,-5.21663 18.60991,-25.76592 32.16523,-42.85265 28.9687,-36.51559 79.57571,-85.80048 111.02111,-108.12055 6.6,-4.68472 14.1,-10.0738 16.6666,-11.97574 2.5667,-1.90194 7.1367,-5.12559 10.1555,-7.16367 26.1121,-17.62876 -1.4364,-11.53152 -42.8221,9.47769 -23.7734,12.0684 -60.76104,34.22956 -95.98555,57.50974 -11.72537,7.7494 -21.92537,14.32978 -22.66667,14.62307 -0.7413,0.29329 -1.64782,0.92837 -2.01449,1.41128 -0.36667,0.48291 -6.06667,4.41871 -12.66667,8.74623 -6.6,4.32751 -14.1,9.45234 -16.66666,11.38851 -2.56667,1.93616 -12.46667,9.13656 -22.00001,16.00087 -9.53333,6.86431 -17.63333,12.82123 -18,13.2376 -0.36666,0.41636 -5.16666,4.16196 -10.66666,8.32355 -27.02981,20.45215 -76.27771,59.55727 -98.66668,78.34591 -4.03333,3.38474 -14.53333,12.11354 -23.33333,19.39733 -8.8,7.2838 -24.1,20.16633 -34,28.62786 -9.9,8.46153 -20.66118,17.47028 -23.91372,20.01944 -3.25255,2.54916 -6.87385,5.55615 -8.04734,6.68218 -1.1735,1.12604 -4.3629,3.74769 -7.08757,5.8259 -5.79201,4.41778 -6.11137,4.22952 -35.07455,-20.67571 -23.43671,-20.15305 -30.90663,-26.47859 -39.16904,-33.16839 -4.05595,-3.28397 -8.57446,-7.08787 -10.04112,-8.45311 -2.55385,-2.37724 -23.30098,-19.37758 -59.16702,-48.48185 -9.19917,-7.46486 -17.21476,-13.27026 -17.81241,-12.90089 -0.59766,0.36937 -0.92178,0.12049 -0.72028,-0.55308 0.2015,-0.67356 -5.03363,-5.33807 -11.63363,-10.36556 -6.6,-5.02749 -15.32961,-11.87099 -19.39913,-15.20778 -4.06952,-3.33678 -9.08964,-7.26688 -11.15583,-8.73354 -2.06619,-1.46667 -6.06611,-4.46667 -8.88871,-6.66667 -2.8226,-2.2 -8.48103,-6.4 -12.57429,-9.33334 -4.09326,-2.93333 -10.26374,-7.51288 -13.71217,-10.17677 -3.44843,-2.66389 -12.30587,-8.96389 -19.68319,-14 -7.37731,-5.03611 -20.27732,-13.86494 -28.66666,-19.61963 -13.48559,-9.25046 -62.76046,-40.52494 -80.38552,-51.02023 -37.46442,-22.30915 -76.81976,-40.45845 -87.82601,-40.50228 -5.85326,-0.0233 -3.47392,2.50242 13.80307,14.65224 16.00437,11.25487 37.76308,27.27119 40.67485,29.94025 0.83587,0.7662 5.93587,5.13168 11.33334,9.70108 46.31173,39.20668 108.68913,115.36356 146.192,178.48655 2.13667,3.59634 7.87561,13.0352 12.75321,20.97524 4.8776,7.94004 8.86837,14.59283 8.86837,14.78399 0,0.19115 3.9621,7.49475 8.80468,16.23023 4.84257,8.73547 12.34457,22.64401 16.67109,30.90786 4.32653,8.26385 8.42691,16.06385 9.11196,17.33333 12.33883,22.86535 45.63341,98.38419 44.48903,100.9101 -0.34837,0.76893 -6.43315,6.04416 -13.52175,11.72273 -14.0626,11.26534 -34.17886,28.11344 -41.55501,34.80384 -2.56667,2.32804 -7.36667,6.31724 -10.66667,8.86487 -3.3,2.54764 -6.6,5.2815 -7.33333,6.07525 -4.86468,5.2655 -49.93866,39.15111 -79.18348,59.52837 -52.26822,36.41955 -99.81356,59.11573 -140.86491,67.24309 -15.48162,3.06506 -47.65937,3.12696 -61.93506,0.11914 -10.99447,-2.31648 -11.1162,-2.30559 -9.89174,0.88529 2.67357,6.96721 30.37016,16.65894 59.87517,20.95183 38.41672,5.5895 75.11889,-0.23237 156.00001,-24.74545 30.20413,-9.15413 33.61267,-10.10532 45.37359,-12.66194 21.80567,-4.74018 53.92475,-5.69897 69.29309,-2.06848 33.9836,8.028 71.60074,34.01541 94.66667,65.39947 11.6378,15.83467 12.65782,11.71379 4.66478,-18.84569 -3.34532,-12.79003 -6.35518,-22.0372 -17.96946,-55.20758 -1.15547,-3.3 -2.66806,-7.2 -3.36131,-8.66667 -0.69326,-1.46666 -2.46389,-5.80559 -3.93475,-9.64205 -7.35571,-19.18606 -21.58957,-42.66509 -33.96031,-56.01821 -11.61298,-12.53517 -11.90915,-8.82649 -1.14231,14.30386 5.5188,11.85602 9.77847,26.64972 10.61789,36.87567 1.12635,13.72148 -0.7646,14.00974 -25.90892,3.94968 -23.99073,-9.59852 -57.67304,-11.89652 -82.72248,-5.6438 -12.90363,3.22094 -16.15674,2.80943 -9.93836,-1.25718 2.01037,-1.31471 4.35179,-3.03034 5.20316,-3.81251 0.85136,-0.78217 5.89562,-4.72213 11.20944,-8.75546 8.33752,-6.32839 27.68189,-22.53951 57.86508,-48.49254 11.65187,-10.01887 22.97228,-20.14854 32.04421,-28.67365 13.00806,-12.22398 12.04504,-11.93686 15.3682,-4.58202 3.36108,7.43875 20.61997,55.91306 31.95413,89.74821 17.54031,52.36196 35.58732,113.72401 46.61845,158.50848 2.0987,8.52034 4.17372,16.39153 4.61116,17.49153 0.43743,1.1 1.64246,5.9 2.67784,10.66667 1.03538,4.76667 4.92503,21.86667 8.64366,38 9.12368,39.58324 11.30801,49.72454 16.08228,74.66664 5.32707,27.8301 8.08036,39.3334 9.41438,39.3334 0.59556,0 1.98028,-4.05 3.07716,-9 z M 651.3009,930.33339 c -1.40752,-6.69495 -13.14791,-50.83089 -17.99969,-67.66667 -1.37367,-4.76667 -6.69523,-23.36667 -11.82569,-41.33334 -5.13046,-17.96666 -12.12542,-40.46666 -15.54435,-50 -9.23005,-25.73698 -21.37775,-60.23276 -28.64157,-81.33334 -3.53427,-10.26666 -8.57026,-24.82669 -11.19109,-32.35562 -5.9411,-17.06717 -6.43621,-14.66533 4.90153,-23.77831 5.31666,-4.2734 12.36845,-10.19148 15.67062,-13.15128 3.30218,-2.9598 8.9616,-7.78146 12.5765,-10.71479 6.7524,-5.47929 14.93453,-12.3063 17.57792,-14.66667 0.82126,-0.73333 4.69644,-4.03333 8.61151,-7.33333 3.91506,-3.3 10.44345,-8.91885 14.50754,-12.48633 13.19242,-11.5804 15.49052,-11.58971 26.05591,-0.10564 0.73333,0.7971 6.43334,5.56349 12.66667,10.59197 6.23333,5.02848 11.93333,9.78799 12.66667,10.57668 0.73333,0.7887 4.63333,4.12806 8.66666,7.42081 4.03334,3.29275 13.3752,11.09035 20.75971,17.328 7.3845,6.23765 15.93451,13.39795 19,15.91179 3.0655,2.51384 5.57363,5.1322 5.57363,5.81857 0,1.17267 -12.94464,38.64204 -30.03682,86.94416 -20.23227,57.17594 -24.79429,71.20622 -34.24973,105.33334 -2.23499,8.06666 -6.59052,23.66666 -9.67894,34.66666 -3.08843,11 -8.25804,30.05001 -11.48804,42.33334 -6.10667,23.22304 -7.06025,25.2238 -8.57895,18 z M 751.33338,598.43771 c -2.2,-1.99559 -8.8,-7.65656 -14.66667,-12.57993 -5.86666,-4.92336 -12.46666,-10.58463 -14.66667,-12.58059 -2.2,-1.99596 -9.7,-8.56844 -16.66666,-14.60551 -24.04496,-20.8365 -22.17467,-18.45623 -17.67138,-22.48996 8.38086,-7.50699 13.30151,-11.76685 21.00471,-18.18398 4.4,-3.6654 8.3,-6.96437 8.66667,-7.33104 1.04874,-1.04874 21.55893,-19.12288 26,-22.91191 2.2,-1.87699 8.2,-7.07726 13.33333,-11.55616 21.74974,-18.97691 55.42251,-45.33021 100.00001,-78.26296 21.86989,-16.15692 24.05862,-17.13789 18.44974,-8.26898 -3.26813,5.16766 -18.7631,31.278 -22.35298,37.66667 -0.82414,1.46667 -3.03771,5.06667 -4.91905,8 -1.88133,2.93333 -4.93084,8.03333 -6.77669,11.33333 -1.84584,3.3 -7.5276,12.90001 -12.62614,21.33334 -13.62504,22.53679 -26.71037,46.90762 -39.73251,74 -15.00433,31.21632 -14.85276,30.88869 -17.88765,38.66667 -1.43069,3.66667 -4.47933,10.76645 -6.77475,15.77729 -4.59897,10.0394 -3.95486,9.93839 -12.71331,1.99372 z M 535.72311,580.55732 c -10.73948,-24.94066 -33.19491,-71.06648 -41.8279,-85.9189 -13.06272,-22.47345 -56.16722,-94.86133 -60.72066,-101.97173 -8.64365,-13.49744 -8.1835,-13.24037 38.81014,21.68126 26.16599,19.44431 69.56097,53.69844 77.34868,61.05572 5.161,4.87575 20.30081,18.09139 49.42746,43.14554 10.58156,9.10206 20.30809,17.53761 21.61451,18.74568 2.53375,2.34301 0.0175,4.94637 -28.38888,29.37181 -4.6907,4.03334 -9.47249,8.23334 -10.62619,9.33334 -1.15371,1.1 -4.18173,3.73349 -6.72894,5.85221 -5.91514,4.92009 -22.46141,19.64681 -24.44857,21.76003 -2.82214,3.00117 -4.15486,0.87625 -14.45965,-23.05496 z"
       id="path2"
       inkscape:export-filename="path2.svg"
       inkscape:export-xdpi="19.054537"
       inkscape:export-ydpi="19.054537" />
  </g>
</svg>
